<?xml version="1.0" encoding="utf-8"?>
<!-- Generator: Adobe Illustrator 17.0.2, SVG Export Plug-In . SVG Version: 6.00 Build 0)  -->
<!DOCTYPE svg PUBLIC "-//W3C//DTD SVG 1.1//EN" "http://www.w3.org/Graphics/SVG/1.1/DTD/svg11.dtd">
<svg version="1.1" id="Layer_1" xmlns="http://www.w3.org/2000/svg" xmlns:xlink="http://www.w3.org/1999/xlink" x="0px" y="0px"
	 width="76.283px" height="46.191px" viewBox="0 0 76.283 46.191" enable-background="new 0 0 76.283 46.191" xml:space="preserve">
<path fill="#EEECE7" d="M76.283,6.636c0.001-0.475-0.146-1.192-0.857-1.906C71.95,1.243,56.016,0,42.263,0
	C40.839,0,7.388,0.075,7.342,6.624C7.34,6.901,7.404,7.285,7.669,7.695C7.666,7.978,7.68,8.202,7.697,8.452
	c0.014,0.221,0.031,0.477,0.037,0.837C7.578,9.278,7.423,9.267,7.261,9.267c-1.747,0-3.696,0.632-4.85,1.573
	c-2.895,2.361-3.057,8.366-1.159,11.625c2.067,3.551,5.976,5.663,9.479,7.364c0.966,0.468,1.993,0.939,3.053,1.381
	c5.899,9.196,15.637,14.982,27.09,14.982c19.49,0,35.347-16.334,35.347-36.413l0.001-0.552c0.002-0.776,0.002-1.206-0.05-1.869
	C76.281,7.072,76.283,6.826,76.283,6.636z M4.598,20.892c-0.936-1.423-1.509-4.106-0.836-5.681c0.304-0.71,0.814-1.123,1.562-1.26
	c1.084-0.203,1.974,0.057,2.716,0.783c0.449,3.858,1.397,7.492,2.785,10.822C8.305,24.555,6.078,23.139,4.598,20.892z
	 M70.774,20.247c-2.914,8.477-8.856,15.182-17.219,19.379c8.067-8.127,13.637-13.938,14.617-25.605
	C73.205,8.705,72.031,16.587,70.774,20.247z M41.879,10.63c-18.284,0-30.356-2.6-32.076-4.071c1.355-1.582,12.745-4.188,32.46-4.188
	c21.268,0,30.886,2.635,31.61,4.141C72.37,8.01,60.573,10.63,41.879,10.63z"/>
</svg>
